<svg width="11" height="8" viewBox="0 0 11 8" fill="none" xmlns="http://www.w3.org/2000/svg">
									<path d="M4.00475 4.68437C4.00475 5.68167 4.26316 6.61732 4.71692 7.42811C2.51117 7.04738 0.833023 5.1206 0.833023 2.80075C0.833023 2.50942 0.859172 2.22426 0.91147 1.9468C1.34216 1.81578 1.80054 1.74487 2.2743 1.74487C3.08953 1.74487 3.85708 1.95451 4.52465 2.32137C4.19087 3.03967 4.00475 3.83967 4.00475 4.68437Z" fill="#34C759"></path>
									<path d="M10.2067 2.80077C10.2067 4.92023 8.80692 6.71137 6.88266 7.29557C6.55195 7.39576 6.2074 7.46204 5.84901 7.48516H5.84747C5.26757 6.70366 4.92456 5.7341 4.92456 4.68439C4.92456 4.03391 5.05684 3.41426 5.29526 2.8501C5.96745 1.26243 7.48563 0.123314 9.28376 0C9.86365 0.781503 10.2067 1.75106 10.2067 2.80077Z" fill="#34C759"></path>
									</svg>